<svg width="1600" height="900" viewBox="0 0 1600 900" fill="none" xmlns="http://www.w3.org/2000/svg">
  <rect width="1600" height="900" rx="40" fill="#172131"/>
  <rect x="84" y="86" width="1432" height="728" rx="34" fill="#1D293A"/>
  <circle cx="1280" cy="170" r="72" fill="#8AACC8" fill-opacity="0.16"/>
  <circle cx="1280" cy="170" r="40" fill="#D8E7F4" fill-opacity="0.12"/>
  <path d="M84 560C246 520 385 502 530 512C675 522 826 564 978 558C1126 553 1262 501 1408 482C1449 476 1489 473 1516 474V814H84V560Z" fill="#2A3B51"/>
  <path d="M84 644C208 621 337 608 475 616C613 624 745 656 877 670C1014 684 1147 681 1286 657C1366 644 1443 637 1516 636V814H84V644Z" fill="#34495F"/>
  <rect x="144" y="156" width="170" height="22" rx="11" fill="#89ABC7" fill-opacity="0.34"/>
  <rect x="144" y="208" width="520" height="36" rx="18" fill="#EFF5FA" fill-opacity="0.9"/>
  <rect x="144" y="268" width="664" height="36" rx="18" fill="#DDE8F2" fill-opacity="0.62"/>
  <rect x="144" y="372" width="136" height="32" rx="16" fill="#89ABC7" fill-opacity="0.64"/>
  <rect x="298" y="372" width="180" height="32" rx="16" fill="#89ABC7" fill-opacity="0.18" stroke="#89ABC7" stroke-opacity="0.22"/>
  <rect x="144" y="466" width="1004" height="2" fill="#445A75"/>
</svg>
